<svg width="23" height="16" viewBox="0 0 23 16" fill="none" xmlns="http://www.w3.org/2000/svg">
<path d="M21.1504 5.90074C20.2451 5.00374 19.0439 4.46076 17.7673 4.37153C17.4497 3.19426 16.7524 2.15234 15.7819 1.40474C14.6219 0.487862 13.1804 -0.00780655 11.6971 9.29804e-05C10.4657 -0.00279013 9.26064 0.353215 8.23164 1.02386C7.3892 1.56986 6.69778 2.31604 6.22026 3.19455C6.11774 3.19455 6.01667 3.18596 5.91559 3.18596C5.12145 3.18363 4.33523 3.34248 3.60532 3.65274C2.90245 3.95131 2.2649 4.38268 1.72822 4.92279C0.922442 5.73101 0.367686 6.75171 0.129927 7.86351C-0.107833 8.97532 -0.0185959 10.1314 0.387028 11.1944C0.792652 12.2574 1.4976 13.1825 2.41803 13.8597C3.33847 14.5369 4.43567 14.9377 5.57916 15.0145H5.68601C5.75965 15.0145 5.8304 15.0145 5.90982 15.0145H6.12496H17.0396H17.2287C17.2717 15.0144 17.3146 15.0115 17.3572 15.0059C18.7623 14.9447 20.0969 14.3782 21.1114 13.4122C21.611 12.9421 22.0093 12.3764 22.2823 11.7493C22.5553 11.1223 22.6973 10.4469 22.6997 9.76387C22.6983 8.26043 22.1482 6.88156 21.1504 5.90074ZM11.7548 1.27301C14.4333 1.27301 16.6194 3.36494 16.6295 5.93654C16.6282 6.06282 16.5867 6.18547 16.511 6.28702C16.4353 6.38857 16.3292 6.46385 16.2079 6.50212C16.1896 6.51086 16.1708 6.51851 16.1516 6.52503C15.476 6.73866 14.7697 6.8412 14.0608 6.82858C13.2326 6.82305 12.4082 6.71678 11.6061 6.51214C11.5261 6.49262 11.4509 6.45717 11.3851 6.40794C11.3193 6.35871 11.2643 6.29673 11.2235 6.22577C11.1836 6.15915 11.1579 6.0852 11.1477 6.00842C11.1375 5.93163 11.1431 5.8536 11.1642 5.77903C11.2079 5.62459 11.3107 5.49319 11.4507 5.41292C11.5908 5.33266 11.7569 5.30989 11.9136 5.34948C13.3576 5.70744 14.4477 5.65446 15.1134 5.54708H15.1422H15.1625H15.1899H15.2246H15.239C15.2706 5.53804 15.2985 5.51932 15.3187 5.4936C15.339 5.46789 15.3505 5.43649 15.3516 5.40389V5.3953C15.3523 5.39103 15.3523 5.38668 15.3516 5.38241V5.36237C15.0412 3.69569 13.5337 2.48721 11.7664 2.48721C9.74487 2.48721 8.10458 4.04507 8.10458 5.95945C8.10458 7.87383 9.73621 9.40591 11.7548 9.40591C12.1552 9.40733 12.5534 9.34595 12.9345 9.22406C13.3874 9.08004 13.8077 8.85001 14.1719 8.5468C14.2959 8.44436 14.4547 8.39279 14.6157 8.40264C14.7768 8.41249 14.928 8.48301 15.0383 8.59978C15.144 8.71358 15.1999 8.86434 15.1937 9.01896C15.1875 9.17359 15.1196 9.31944 15.0051 9.42452L14.982 9.446C14.502 9.84548 13.9498 10.1507 13.3547 10.3452L9.87049 11.6811C9.85001 11.6883 9.82863 11.6926 9.80696 11.694C9.75326 11.7082 9.69793 11.7154 9.64236 11.7155C9.56252 11.7172 9.48313 11.7033 9.40871 11.6746C9.3343 11.6458 9.26632 11.6029 9.20866 11.5481C9.151 11.4933 9.1048 11.4278 9.07268 11.3553C9.04056 11.2828 9.02315 11.2047 9.02147 11.1256C9.02219 11.0086 9.05819 10.8946 9.12484 10.7981C9.19149 10.7017 9.28574 10.6272 9.39544 10.5843H9.407L10.0856 10.3237C9.2666 10.0393 8.53787 9.54532 7.97318 8.89187C7.62444 8.4875 7.34891 8.02632 7.15881 7.52875C6.9651 7.01902 6.86722 6.4784 6.87002 5.93367C6.86136 3.36351 9.05612 1.27301 11.7548 1.27301ZM17.2345 13.7788H6.09752C5.002 13.7731 3.94019 13.4024 3.08262 12.7264C2.24505 12.0621 1.65631 11.1385 1.41056 10.1032C1.2346 9.41392 1.2346 8.692 1.41056 8.0027C1.64525 7.10588 2.12891 6.29233 2.80659 5.65448C3.48427 5.01664 4.32878 4.58009 5.24417 4.39444C5.42852 4.35846 5.61529 4.33597 5.80296 4.32714C5.8893 4.31696 5.9768 4.32977 6.05649 4.36425C6.13617 4.39873 6.20516 4.45362 6.25636 4.5233C6.33636 4.62947 6.38598 4.75509 6.39996 4.8869C6.41393 5.01871 6.39176 5.15181 6.33577 5.27216C6.33084 5.28356 6.32505 5.29457 6.31844 5.30509C6.28482 5.36293 6.2378 5.41201 6.18127 5.44828C6.10344 5.49744 6.01573 5.5292 5.92426 5.54135L5.74521 5.57285C5.64269 5.59003 5.5445 5.60721 5.45642 5.62583C3.89699 5.93511 2.90357 7.2252 2.63934 8.29336C2.51594 8.77015 2.51247 9.26969 2.62923 9.74812C2.62923 9.76244 2.63934 9.77962 2.64367 9.79967C2.8317 10.5759 3.27814 11.2667 3.91087 11.7603C4.54359 12.2539 5.32566 12.5216 6.13074 12.5202H17.2388C18.0022 12.5164 18.733 12.213 19.2715 11.6764C19.81 11.1397 20.1122 10.4135 20.1122 9.65648C20.1122 8.10149 19.0668 6.90304 17.6258 6.8071C17.5895 6.80589 17.5534 6.80255 17.5175 6.79708C17.0121 6.69255 16.9139 6.08116 17.2201 5.75326C17.3644 5.60292 17.4554 5.54278 17.7514 5.56139C18.6827 5.62153 19.4119 5.99095 20.1931 6.77847C20.7627 7.35703 21.1479 8.08906 21.3007 8.88328C21.4535 9.67749 21.3672 10.4987 21.0525 11.2446C20.7377 11.9905 20.2085 12.628 19.5309 13.0776C18.8532 13.5273 18.0571 13.7691 17.2417 13.773L17.2345 13.7788Z" fill="#0091EA"/>
</svg>
