<svg width="123" height="24" viewBox="0 0 123 24" fill="none" xmlns="http://www.w3.org/2000/svg">
<g clip-path="url(#clip0_51_919)">
<path d="M33.7859 9.42585C32.3398 7.99299 30.4209 7.12562 28.3817 6.98308C27.8743 5.10251 26.7605 3.43815 25.2102 2.24392C23.3572 0.779305 21.0546 -0.0124778 18.685 0.000140898C16.7181 -0.0044646 14.7931 0.564219 13.1494 1.63552C11.8037 2.50769 10.6992 3.69965 9.9364 5.10297C9.77264 5.10297 9.61119 5.08925 9.44973 5.08925C8.18117 5.08553 6.92526 5.33929 5.75929 5.83489C4.63653 6.31182 3.6181 7.0009 2.76081 7.86367C1.47366 9.15473 0.587489 10.7852 0.207691 12.5612C-0.172107 14.3372 -0.0295593 16.184 0.618386 17.882C1.26633 19.58 2.39241 21.0577 3.86272 22.1395C5.33302 23.2212 7.08569 23.8615 8.91231 23.9841H9.08299C9.20062 23.9841 9.31364 23.9841 9.4405 23.9841H9.78417H27.2192H27.5213C27.59 23.984 27.6586 23.9795 27.7266 23.9704C29.9711 23.8727 32.103 22.9677 33.7236 21.4247C34.5216 20.6737 35.1579 19.7701 35.594 18.7684C36.03 17.7667 36.2569 16.6878 36.2608 15.5968C36.2585 13.1952 35.3797 10.9926 33.7859 9.42585ZM18.7773 2.0335C23.0559 2.0335 26.548 5.37515 26.5641 9.48304C26.5621 9.68476 26.4958 9.88068 26.3749 10.0429C26.254 10.2051 26.0845 10.3254 25.8906 10.3865C25.8614 10.4005 25.8314 10.4127 25.8007 10.4231C24.7215 10.7644 23.5933 10.9281 22.4608 10.908C21.1379 10.8992 19.821 10.7294 18.5397 10.4025C18.4119 10.3713 18.2918 10.3147 18.1867 10.2361C18.0817 10.1574 17.9938 10.0584 17.9285 9.94506C17.8649 9.83863 17.8237 9.72051 17.8075 9.59786C17.7912 9.4752 17.8002 9.35055 17.8339 9.23144C17.9036 8.98472 18.0679 8.77483 18.2916 8.64661C18.5153 8.51839 18.7807 8.48202 19.031 8.54527C21.3376 9.11708 23.079 9.03245 24.1423 8.86091H24.1884H24.2207H24.2645H24.3199H24.343C24.3934 8.84647 24.438 8.81657 24.4703 8.77549C24.5026 8.73441 24.521 8.68425 24.5229 8.63218V8.61846C24.524 8.61164 24.524 8.60469 24.5229 8.59787V8.56585C24.027 5.90351 21.6189 3.97308 18.7958 3.97308C15.5666 3.97308 12.9464 6.46159 12.9464 9.51963C12.9464 12.5777 15.5528 15.025 18.7773 15.025C19.417 15.0273 20.053 14.9292 20.6617 14.7345C21.3852 14.5045 22.0565 14.137 22.6384 13.6527C22.8365 13.489 23.0901 13.4067 23.3473 13.4224C23.6046 13.4381 23.8461 13.5508 24.0223 13.7373C24.1913 13.9191 24.2806 14.1599 24.2706 14.4069C24.2607 14.6539 24.1523 14.8869 23.9693 15.0547L23.9324 15.0891C23.1657 15.7272 22.2835 16.2147 21.3329 16.5254L15.7673 18.6594C15.7346 18.6709 15.7004 18.6778 15.6658 18.68C15.58 18.7027 15.4916 18.7142 15.4029 18.7143C15.2753 18.7171 15.1485 18.6949 15.0296 18.649C14.9108 18.6031 14.8022 18.5344 14.7101 18.4469C14.618 18.3594 14.5442 18.2548 14.4929 18.139C14.4416 18.0231 14.4138 17.8985 14.4111 17.772C14.4122 17.5852 14.4697 17.403 14.5762 17.249C14.6827 17.0949 14.8332 16.9759 15.0084 16.9074H15.0269L16.111 16.4911C14.8026 16.0367 13.6386 15.2477 12.7365 14.2039C12.1794 13.558 11.7393 12.8213 11.4356 12.0264C11.1262 11.2122 10.9699 10.3486 10.9743 9.47846C10.9605 5.37287 14.4664 2.0335 18.7773 2.0335ZM27.5306 22.0102H9.74035C7.99035 22.0011 6.29422 21.409 4.92432 20.3291C3.58639 19.268 2.64594 17.7926 2.25337 16.1389C1.97229 15.0378 1.97229 13.8846 2.25337 12.7835C2.62827 11.3509 3.40087 10.0514 4.4834 9.03248C5.56592 8.01359 6.91495 7.31624 8.37719 7.01968C8.67167 6.96221 8.97002 6.92628 9.26981 6.91218C9.40772 6.89592 9.5475 6.91638 9.67479 6.97146C9.80208 7.02653 9.91228 7.11422 9.99407 7.22553C10.1219 7.39512 10.2011 7.59578 10.2235 7.80634C10.2458 8.01689 10.2104 8.22951 10.1209 8.42176C10.1131 8.43996 10.1038 8.45755 10.0932 8.47436C10.0395 8.56676 9.96443 8.64515 9.87413 8.70309C9.74979 8.78162 9.60969 8.83236 9.46357 8.85176L9.17756 8.90208C9.01379 8.92952 8.85695 8.95697 8.71625 8.9867C6.2252 9.48075 4.63832 11.5416 4.21623 13.2478C4.01911 14.0095 4.01357 14.8074 4.20008 15.5717C4.20008 15.5945 4.21623 15.622 4.22315 15.654C4.52351 16.894 5.23665 17.9974 6.24737 18.7859C7.25809 19.5745 8.50737 20.0021 9.7934 19.9998H27.5375C28.7569 19.9937 29.9244 19.5091 30.7845 18.6519C31.6446 17.7946 32.1275 16.6346 32.1275 15.4253C32.1275 12.9413 30.4575 11.0269 28.1556 10.8737C28.0977 10.8717 28.0399 10.8664 27.9826 10.8577C27.1754 10.6907 27.0185 9.71405 27.5075 9.19027C27.7382 8.95011 27.8835 8.85404 28.3563 8.88378C29.844 8.97984 31.0088 9.56995 32.2566 10.8279C33.1665 11.7521 33.7818 12.9215 34.0259 14.1902C34.2701 15.4588 34.1321 16.7707 33.6294 17.9622C33.1266 19.1537 32.2813 20.172 31.1988 20.8903C30.1163 21.6085 28.8446 21.9948 27.5421 22.0011L27.5306 22.0102Z" fill="#0091EA"/>
<path d="M59.137 15.7979C59.137 16.1433 59.1047 16.507 59.0885 16.802H46.6817C47.0623 20.0476 49.3388 21.6441 52.0444 21.6441C53.8404 21.63 55.5699 20.9691 56.9112 19.7846L58.3573 21.6281C56.3968 23.4396 54.2056 24 51.8783 24C47.1961 24 43.8747 20.7224 43.8747 15.8483C43.8747 11.0451 47.1799 7.69426 51.7169 7.69426C56.0139 7.69426 59.1047 11.0062 59.137 15.7979ZM46.7256 14.6292H56.3761C56.0439 11.8616 54.2333 10.0844 51.6754 10.0844C48.8729 10.0844 47.1292 11.96 46.7256 14.6292Z" fill="black"/>
<path d="M74.0417 10.1325V0H76.7657V23.6706H74.0417V21.5801C72.7962 23.0439 70.9533 24 68.4784 24C64.043 24 60.5901 20.5691 60.5901 15.8483C60.5901 11.1274 64.0499 7.69427 68.4784 7.69427C70.9441 7.69427 72.7893 8.65034 74.0417 10.1325ZM63.3625 15.8506C63.3625 18.9635 65.556 21.4817 68.7944 21.4817C71.982 21.4817 74.2078 19.0618 74.2078 15.8506C74.2078 12.6393 71.982 10.224 68.7944 10.224C65.5053 10.224 63.3625 12.7399 63.3625 15.8483V15.8506Z" fill="black"/>
<path d="M94.669 23.6706H91.945V21.5801C90.6995 23.0439 88.8542 24 86.3817 24C81.9462 24 78.491 20.5691 78.491 15.8483C78.491 11.1274 81.9508 7.69426 86.3817 7.69426C88.8542 7.69426 90.6995 8.65033 91.945 10.1325V8.02362H94.669V23.6706ZM81.2658 15.8483C81.2658 18.9612 83.457 21.4795 86.6953 21.4795C89.8853 21.4795 92.1111 19.0596 92.1111 15.8483C92.1111 12.637 89.8853 10.2239 86.6953 10.2239C83.3993 10.2239 81.2658 12.7399 81.2658 15.8483Z" fill="black"/>
<path d="M107.77 8.20661L107.106 10.8575C106.259 10.4518 105.329 10.2436 104.389 10.2491C101.981 10.2491 100.288 12.0789 100.288 14.9585V23.6706H97.5891V8.02363H100.262V10.0821C100.776 9.3404 101.465 8.73472 102.269 8.31805C103.073 7.90139 103.968 7.68643 104.875 7.69198C105.866 7.65979 106.852 7.83515 107.77 8.20661Z" fill="black"/>
<path d="M123 23.6706H120.276V21.5801C119.03 23.0439 117.188 24 114.713 24C110.277 24 106.822 20.5691 106.822 15.8483C106.822 11.1274 110.282 7.69426 114.713 7.69426C117.188 7.69426 119.03 8.65033 120.276 10.1325V8.02362H123V23.6706ZM109.597 15.8483C109.597 18.9612 111.788 21.4795 115.029 21.4795C118.216 21.4795 120.442 19.0596 120.442 15.8483C120.442 12.637 118.228 10.2239 115.029 10.2239C111.74 10.2239 109.597 12.7399 109.597 15.8483Z" fill="black"/>
</g>
<defs>
<clipPath id="clip0_51_919">
<rect width="123" height="24" fill="white"/>
</clipPath>
</defs>
</svg>
