<svg id="Layer_1" data-name="Layer 1" xmlns="http://www.w3.org/2000/svg" viewBox="0 0 99.43 66.32"><defs><style>.cls-1{fill:#37a2dc;}</style></defs><title>Normal icon</title><path class="cls-1" d="M106.93,56.9h0a23.28,23.28,0,0,0-14.82-6.75A24.71,24.71,0,0,0,83.41,37a28.47,28.47,0,0,0-17.89-6.2,27.58,27.58,0,0,0-15.18,4.52A26.42,26.42,0,0,0,41.53,45c-.45,0-.89,0-1.33,0A25.51,25.51,0,0,0,30.08,47a25.89,25.89,0,0,0-8.22,5.61A26.21,26.21,0,0,0,38.72,97.16h51a3.43,3.43,0,0,0,.56,0,25.35,25.35,0,0,0,16.45-7A22.31,22.31,0,0,0,113.71,74,23.81,23.81,0,0,0,106.93,56.9ZM65.77,36.46c11.74,0,21.31,9.24,21.36,20.6a2.66,2.66,0,0,1-1.85,2.5l-.25.1A28.17,28.17,0,0,1,75.87,61a43.92,43.92,0,0,1-10.75-1.4,2.63,2.63,0,0,1-1.67-1.26,2.48,2.48,0,0,1-.26-2,2.71,2.71,0,0,1,3.28-1.9,34.75,34.75,0,0,0,14,.87H81a.68.68,0,0,0,.49-.63v-.1h0v-.08a15.78,15.78,0,0,0-15.71-12.7c-8.85,0-16,6.88-16,15.33s7.14,15.23,16,15.23a16.78,16.78,0,0,0,5.17-.81,15.83,15.83,0,0,0,5.42-3,2.78,2.78,0,0,1,3.8.24A2.58,2.58,0,0,1,80,72.47l-.1.09a21.5,21.5,0,0,1-7.13,4l-15.26,5.9a.87.87,0,0,1-.28,0,2.5,2.5,0,0,1-.72.1A2.67,2.67,0,0,1,53.8,80h0a2.61,2.61,0,0,1,1.64-2.39h.05l3-1.15a21.67,21.67,0,0,1-9.25-6.32,20.62,20.62,0,0,1-3.57-6,19.75,19.75,0,0,1-1.26-7C44.34,45.7,54,36.46,65.77,36.46Zm24,55.24H41a21.36,21.36,0,0,1-13.2-4.65,21,21,0,0,1-7.33-11.58h0a18.93,18.93,0,0,1,0-9.28,21.89,21.89,0,0,1,16.8-15.94A16.6,16.6,0,0,1,39.7,50a2.15,2.15,0,0,1,2,.87A3.26,3.26,0,0,1,42,54.13a.64.64,0,0,1-.08.14,1.84,1.84,0,0,1-.6.64,3,3,0,0,1-1.12.41l-.79.14c-.45.07-.88.15-1.26.23A16.4,16.4,0,0,0,25.85,67.47a13.32,13.32,0,0,0-.05,6.43h0a1.83,1.83,0,0,0,.07.23,15.67,15.67,0,0,0,15.27,12H89.8a12.64,12.64,0,0,0,12.58-12.65c0-6.87-4.58-12.16-10.89-12.58a3.56,3.56,0,0,1-.47,0,2.76,2.76,0,0,1-1.31-4.61A2.35,2.35,0,0,1,92,55.41c4.08.26,7.27,1.89,10.7,5.37a18.2,18.2,0,0,1-12.93,30.9Z" transform="translate(-14.29 -30.84)"/></svg>